<svg width="18" height="21" viewBox="0 0 18 21" fill="none" xmlns="http://www.w3.org/2000/svg">
<path fill-rule="evenodd" clip-rule="evenodd" d="M15.9387 0.21875C17.0751 0.21875 18.0004 1.13875 18.0004 2.27875V20.2188L15.8381 18.3187L14.6212 17.1987L13.3339 16.0087L13.8669 17.8587H2.46211C1.32565 17.8587 0.400391 16.9387 0.400391 15.7987V2.27875C0.400391 1.13875 1.32565 0.21875 2.46211 0.21875H15.9387V0.21875ZM12.0566 13.2787C14.2792 13.2087 15.1341 11.7587 15.1341 11.7587C15.1341 8.53875 13.6859 5.92875 13.6859 5.92875C12.2376 4.84875 10.8598 4.87875 10.8598 4.87875L10.719 5.03875C12.4287 5.55875 13.2232 6.30875 13.2232 6.30875C12.1773 5.73875 11.1515 5.45875 10.196 5.34875C9.47193 5.26875 8.77799 5.28875 8.16451 5.36875L7.99353 5.38875C7.64153 5.41875 6.78668 5.54875 5.71056 6.01875C5.33845 6.18875 5.11719 6.30875 5.11719 6.30875C5.11719 6.30875 5.95193 5.51875 7.76222 4.99875L7.66165 4.87875C7.66165 4.87875 6.28382 4.84875 4.83559 5.92875C4.83559 5.92875 3.38736 8.53875 3.38736 11.7587C3.38736 11.7587 4.23216 13.2087 6.45479 13.2787C6.45479 13.2787 6.8269 12.8287 7.12862 12.4487C5.85136 12.0687 5.36862 11.2688 5.36862 11.2688L5.65022 11.4387L5.69045 11.4688L5.72984 11.4913L5.74157 11.4963L5.78096 11.5188C6.03239 11.6588 6.28382 11.7688 6.51513 11.8588C6.92748 12.0188 7.42028 12.1788 7.99353 12.2887C8.74782 12.4288 9.63285 12.4788 10.5983 12.2987C11.071 12.2188 11.5538 12.0787 12.0566 11.8687C12.4086 11.7387 12.8008 11.5487 13.2132 11.2788C13.2132 11.2788 12.7103 12.0987 11.3928 12.4688C11.6946 12.8487 12.0566 13.2787 12.0566 13.2787ZM7.38005 8.60875C6.80679 8.60875 6.35422 9.10875 6.35422 9.71875C6.35422 10.3287 6.81685 10.8287 7.38005 10.8287C7.95331 10.8287 8.40588 10.3287 8.40588 9.71875C8.41593 9.10875 7.95331 8.60875 7.38005 8.60875ZM11.0509 8.60875C10.4776 8.60875 10.0251 9.10875 10.0251 9.71875C10.0251 10.3287 10.4877 10.8287 11.0509 10.8287C11.6242 10.8287 12.0767 10.3287 12.0767 9.71875C12.0767 9.10875 11.6242 8.60875 11.0509 8.60875Z" fill="white"/>
</svg>
