<svg width="26" height="23" viewBox="0 0 26 23" fill="none" xmlns="http://www.w3.org/2000/svg">
<path d="M5.03021 7.44379C5.79652 7.44312 6.53126 7.13843 7.07308 6.59667C7.61507 6.05512 7.91997 5.32034 7.92089 4.55403V4.0942C7.92089 3.06167 7.36993 2.10755 6.47578 1.59129C5.5816 1.07504 4.47996 1.07504 3.58579 1.59129C2.69144 2.10754 2.14068 3.06167 2.14068 4.0942V4.55403C2.14135 5.32034 2.44604 6.0549 2.9878 6.59667C3.52956 7.13843 4.26413 7.44316 5.03021 7.44379V7.44379ZM3.74517 4.09422C3.74517 3.63506 3.99031 3.21059 4.38792 2.98089C4.78574 2.75142 5.27556 2.75142 5.67342 2.98089C6.07102 3.21058 6.31617 3.63504 6.31617 4.09422V4.55405C6.31617 5.01344 6.07103 5.43768 5.67342 5.66738C5.2756 5.89708 4.78578 5.89708 4.38792 5.66738C3.99032 5.43769 3.74517 5.01346 3.74517 4.55405V4.09422ZM25.1424 0H9.81331C9.60041 0 9.39624 0.0844027 9.2458 0.235069C9.09513 0.385512 9.01073 0.589684 9.01095 0.802361V3.20944C9.01073 3.42234 9.09513 3.62652 9.2458 3.77696C9.39624 3.92763 9.60041 4.01203 9.81331 4.0118H9.98413L9.98391 7.82863H2.90708C2.2688 7.82931 1.657 8.08318 1.20562 8.53448C0.754292 8.98559 0.50063 9.59744 0.5 10.2357V14.9511C0.500224 15.2861 0.605442 15.6127 0.800438 15.8849C0.995429 16.1574 1.27057 16.362 1.58733 16.4703L2.37089 22.3018C2.42417 22.7005 2.76423 22.9978 3.16631 22.9978H6.89534C7.29719 22.9978 7.63724 22.7005 7.69054 22.3018L9.03197 12.3067L9.98386 12.1562V16.7387C9.98386 16.9514 10.0683 17.1555 10.2189 17.306C10.3694 17.4566 10.5735 17.541 10.7862 17.541H14.7143L13.2356 21.9399C13.0961 22.3595 13.3225 22.8132 13.7418 22.9538C14.1611 23.0946 14.6153 22.8696 14.7573 22.4508L16.4077 17.541H16.6754V22.1953H16.6757C16.6757 22.6384 17.0347 22.9977 17.478 22.9977C17.9211 22.9977 18.2804 22.6384 18.2804 22.1953V17.541H18.5481L20.1985 22.4508C20.2657 22.6529 20.4108 22.8202 20.6015 22.9155C20.7925 23.0107 21.0132 23.0261 21.2154 22.9583C21.4175 22.8902 21.5843 22.7447 21.679 22.5538C21.7737 22.3626 21.7885 22.1418 21.72 21.9399L20.2413 17.541H24.1696C24.3823 17.541 24.5864 17.4566 24.7369 17.3059C24.8875 17.1555 24.9719 16.9513 24.9719 16.7387V4.01207H25.1427H25.1425C25.3554 4.01229 25.5596 3.92789 25.71 3.77722C25.8607 3.62678 25.9451 3.42261 25.9449 3.20971V0.802624C25.9451 0.589947 25.8607 0.385775 25.71 0.235332C25.5596 0.0846659 25.3554 0.000263226 25.1425 0.000263226L25.1424 0ZM10.6151 1.60472H24.3401V2.40708H10.6157L10.6151 1.60472ZM8.191 10.8147C7.84041 10.8698 7.56796 11.1487 7.52097 11.5004L6.19272 21.3929L3.86805 21.3932L3.09549 15.6471C3.04221 15.2486 2.70214 14.9511 2.30029 14.9513H2.1044V10.2359C2.10463 9.79284 2.46372 9.43375 2.90676 9.43352H10.7705L10.7861 9.43666L10.8018 9.43352H13.4863L13.3869 9.99455L8.191 10.8147ZM23.3671 15.936L11.5884 15.9362V11.9029L14.2023 11.4901L14.2026 11.4903C14.5406 11.4368 14.8075 11.1746 14.8668 10.8375L15.2326 8.77111H15.2328C15.2745 8.53761 15.2104 8.29739 15.058 8.11541C14.9055 7.9334 14.6803 7.8284 14.443 7.82862H11.5884V4.01179H23.3671L23.3671 15.936ZM15.2495 11.9734L15.9289 12.2875L17.2484 8.37754L17.2482 8.37798C17.346 8.0865 17.6019 7.87696 17.9068 7.838C18.2115 7.79927 18.5117 7.93785 18.6796 8.1953L19.5925 9.59227L20.8109 6.35864C20.9671 5.94403 21.4299 5.73469 21.8445 5.89075C22.2591 6.04701 22.4684 6.50977 22.3122 6.92436L20.536 11.6391C20.4296 11.9219 20.1731 12.1209 19.8729 12.1538C19.5724 12.1867 19.279 12.0479 19.114 11.795L18.2402 10.4566L17.1636 13.6464C17.0911 13.8624 16.9301 14.0372 16.721 14.1275C16.5119 14.2177 16.2741 14.2145 16.0675 14.1189L15.0489 13.6488L13.8651 14.6824L13.8649 14.6822C13.5304 14.9688 13.0274 14.932 12.7381 14.6C12.4487 14.268 12.4809 13.765 12.8102 13.4726L14.3861 12.0976V12.0974C14.6245 11.8901 14.9623 11.8417 15.2493 11.9736L15.2495 11.9734Z" fill="#615CCD"/>
</svg>
