<svg width="24" height="20" viewBox="0 0 24 20" fill="none" xmlns="http://www.w3.org/2000/svg">
<path d="M23.1675 2.62413H20.7669V1.43691C20.7671 1.2161 20.6793 1.00434 20.5233 0.848309C20.3673 0.692044 20.1555 0.604505 19.9347 0.604737H13.6642C13.0854 0.605666 12.5249 0.807443 12.0783 1.1757C11.6318 1.54419 11.3269 2.05596 11.216 2.6241H0.832178C0.611366 2.62387 0.399606 2.71164 0.243573 2.86768C0.0875397 3.02371 -0.000231361 3.23547 4.59456e-07 3.45628V19.1678C-0.000231718 19.3886 0.0875397 19.6004 0.243573 19.7564C0.399606 19.9127 0.611366 20.0002 0.832178 20H23.1678C23.3886 20.0002 23.6004 19.9127 23.7564 19.7564C23.9125 19.6004 24.0002 19.3886 24 19.1678V3.45628C24.0002 3.23547 23.9125 3.02371 23.7564 2.86768C23.6004 2.71164 23.3886 2.62387 23.1678 2.6241L23.1675 2.62413ZM12.8319 3.10105V3.10129C12.8326 2.64178 13.2048 2.26958 13.6641 2.26911H19.1025V15.7444H13.6641C13.3806 15.7444 13.0991 15.7925 12.8319 15.8868V3.10105ZM1.66406 4.28851H11.1675V17.8696C11.1671 17.9152 11.171 17.9607 11.1789 18.0055C11.171 18.0837 11.1673 18.1622 11.1675 18.2409V18.3352H1.66406V4.28851ZM22.3353 18.3357H12.8319V18.2414C12.8326 17.7821 13.2048 17.4099 13.6641 17.4092H19.9345C20.1553 17.4095 20.3671 17.3217 20.5231 17.1657C20.6792 17.0096 20.7669 16.7979 20.7667 16.577V4.28876H22.3352L22.3353 18.3357ZM3.55132 7.16131C3.55109 6.94073 3.63886 6.72897 3.79489 6.57293C3.95092 6.41667 4.16268 6.32913 4.38349 6.32913H8.96208C9.42182 6.32913 9.79425 6.7018 9.79425 7.16131C9.79425 7.62105 9.42182 7.99349 8.96208 7.99349H4.38349C4.16268 7.99372 3.95092 7.90618 3.79489 7.74991C3.63886 7.59388 3.55109 7.38212 3.55132 7.16131ZM9.79443 10.49C9.79466 10.7108 9.70689 10.9226 9.55086 11.0786C9.39483 11.2349 9.18307 11.3224 8.96225 11.3222H4.38367C3.92416 11.3222 3.5515 10.9498 3.5515 10.49C3.5515 10.0305 3.92416 9.65784 4.38367 9.65784H8.96225C9.18307 9.65784 9.39483 9.74538 9.55086 9.90164C9.70689 10.0577 9.79443 10.2694 9.79443 10.49ZM7.50594 13.8187C7.50618 14.0395 7.41841 14.2513 7.26237 14.4073C7.10634 14.5636 6.89458 14.6511 6.67377 14.6509H4.38367C3.92416 14.6509 3.5515 14.2785 3.5515 13.8187C3.5515 13.3592 3.92416 12.9866 4.38367 12.9866H6.67377C6.89458 12.9866 7.10634 13.0741 7.26237 13.2304C7.41841 13.3864 7.50594 13.5981 7.50594 13.8187Z" fill="#615CCD"/>
</svg>
