<svg width="171" height="16" fill="none" xmlns="http://www.w3.org/2000/svg"><path d="M100.422 12.497h-3.185V.554h2.457c1.777 0 2.521.13 3.232.582.857.55 1.358 1.487 1.358 2.602 0 1.114-.372 1.745-1.325 2.246 1.519.63 2.036 1.535 2.036 2.957 0 2.182-1.503 3.556-4.573 3.556Zm-.065-9.776h-.905v2.44h.711c1.341 0 1.906-.372 1.906-1.228 0-.825-.565-1.212-1.712-1.212Zm.145 4.604h-1.05v3.054h1.098c1.551 0 2.214-.452 2.214-1.486 0-1.066-.726-1.568-2.262-1.568ZM107.994 3.544h-2.149v8.953h2.149V3.544ZM108.01.554h-2.149v2.15h2.149V.553ZM113.718 12.707c-2.65 0-4.783-2.085-4.783-4.687 0-2.634 2.068-4.686 4.719-4.686 2.036 0 3.814 1.147 4.509 3.2h-2.427c-.436-.825-1.114-1.228-2.085-1.228-1.487 0-2.553 1.13-2.553 2.698 0 1.567 1.114 2.731 2.601 2.731.889 0 1.503-.356 2.036-1.18h2.424c-.744 2.004-2.36 3.152-4.441 3.152ZM123.522 12.707c-2.618 0-4.752-2.101-4.752-4.687 0-2.57 2.133-4.686 4.735-4.686 2.699 0 4.783 2.085 4.783 4.751.001 2.521-2.164 4.622-4.766 4.622Zm0-7.401c-1.407 0-2.586 1.211-2.586 2.683 0 1.535 1.148 2.747 2.602 2.747 1.422 0 2.585-1.212 2.585-2.715.001-1.487-1.163-2.715-2.601-2.715ZM134.941 12.497v-4.38c0-2.391-.646-2.811-1.713-2.811-.679 0-1.245.29-1.584.824-.275.436-.356.954-.356 2.15v4.217h-2.146V3.544h1.988v.857c.792-.76 1.503-1.067 2.521-1.067 1.244 0 2.214.452 2.796 1.293.485.695.646 1.47.646 3.07v4.799h-2.152ZM142.692 12.707c-2.618 0-4.752-2.101-4.752-4.687 0-2.57 2.133-4.686 4.736-4.686 2.698 0 4.783 2.085 4.783 4.751 0 2.521-2.166 4.622-4.767 4.622Zm0-7.401c-1.406 0-2.585 1.211-2.585 2.683 0 1.535 1.147 2.747 2.601 2.747 1.423 0 2.585-1.212 2.585-2.715 0-1.487-1.163-2.715-2.601-2.715ZM159.59 12.497v-4.91c0-1.793-.679-2.278-1.681-2.278-1.199 0-1.809.646-1.809 2.78V12.5h-2.15V7.588c0-1.762-.614-2.279-1.745-2.279-1.244 0-1.745.663-1.745 2.78V12.5h-2.15V3.544h1.971v.84c.631-.759 1.277-1.05 2.328-1.05 1.227 0 2.019.42 2.634 1.39.727-.97 1.616-1.39 2.876-1.39 2.359 0 3.62 1.31 3.62 3.991v5.172h-2.149ZM165.65 15.486h-2.314l1.68-3.83-3.28-8.112h2.457l1.988 5.801 2.165-5.801h2.475l-5.171 11.942Z" fill="#fff"/><path d="M8.162 4.201c0-1.38-.584-2.516-1.623-3.149C5.857.646 5.062.5 3.471.5H.5v11.997h2.224V7.935h.714c1.705 0 2.484-.13 3.15-.536.974-.6 1.574-1.818 1.574-3.198Zm-2.24.033c0 1.039-.552 1.574-2.549 1.574h-.649V2.627h.747c1.704 0 2.451.34 2.451 1.607ZM18.212 8.065c0-2.679-2.095-4.773-4.806-4.773C10.793 3.292 8.65 5.42 8.65 8c0 2.597 2.143 4.708 4.773 4.708 2.613 0 4.789-2.11 4.789-4.643ZM16.036 8c0 1.51-1.169 2.727-2.597 2.727-1.461 0-2.614-1.217-2.614-2.76 0-1.477 1.185-2.694 2.598-2.694 1.444 0 2.613 1.233 2.613 2.727ZM30.973 3.503h-2.305l-1.64 5.487-1.477-5.487h-1.72L22.32 8.99l-1.607-5.487h-2.322l3.214 8.994h1.332l1.737-5.828 1.704 5.828h1.348l3.246-8.994ZM40.592 8.13c0-2.792-1.964-4.838-4.642-4.838a4.705 4.705 0 0 0-4.74 4.74c0 2.63 2.126 4.676 4.87 4.676 1.818 0 3.684-1.023 4.285-2.874h-2.354c-.552.65-1.088.893-1.98.893-1.283 0-2.224-.681-2.484-1.77h6.964c.065-.308.081-.502.081-.827Zm-2.126-1.072h-4.984c.34-1.152 1.218-1.785 2.5-1.785 1.331 0 2.208.633 2.484 1.785ZM46.074 5.37V3.292h-.163c-.925 0-1.38.26-1.948 1.088v-.877h-1.98v8.994h2.159v-5c0-1.396.633-2.094 1.932-2.127ZM55.859 8.13c0-2.792-1.964-4.838-4.643-4.838a4.705 4.705 0 0 0-4.74 4.74c0 2.63 2.127 4.676 4.87 4.676 1.818 0 3.685-1.023 4.286-2.874h-2.354c-.552.65-1.088.893-1.98.893-1.283 0-2.225-.681-2.484-1.77h6.964c.065-.308.081-.502.081-.827Zm-2.127-1.072H48.75c.34-1.152 1.217-1.785 2.5-1.785 1.33 0 2.207.633 2.483 1.785ZM66.324 12.497V.5h-2.159v3.799c-.633-.698-1.672-1.12-2.808-1.12-2.517 0-4.497 2.11-4.497 4.805 0 2.662 1.964 4.724 4.513 4.724 1.217 0 2.11-.406 2.97-1.38v1.169h1.981ZM64.327 7.95c0 1.559-1.152 2.776-2.613 2.776-1.51 0-2.679-1.25-2.679-2.84 0-1.527 1.153-2.728 2.63-2.728 1.51 0 2.662 1.218 2.662 2.792ZM81.997 7.935c0-2.711-1.948-4.756-4.53-4.756-1.168 0-1.964.324-2.792 1.152V.5h-2.159v11.997h1.98v-1.153c.926.99 1.786 1.364 3.118 1.364 2.532 0 4.383-2.062 4.383-4.773Zm-2.176.016c0 1.64-1.071 2.776-2.613 2.776-1.559 0-2.663-1.152-2.663-2.792 0-1.623 1.104-2.776 2.614-2.776 1.542 0 2.662 1.185 2.662 2.792ZM91.26 3.503h-2.484l-2.175 5.828-1.997-5.828h-2.467l3.295 8.15-1.688 3.847h2.321L91.26 3.503Z" fill="#fff" fill-opacity=".5"/></svg>