<svg width="41" height="40" viewBox="0 0 41 40" fill="none" xmlns="http://www.w3.org/2000/svg">
<path d="M20.001 0C8.96224 0 0 8.96224 0 20.001C0 31.0378 8.96224 40 20.001 40C31.0398 40 40.002 31.0378 40.002 20.001C40.002 8.96224 31.0398 0 20.001 0ZM23.0478 12.4231C23.0478 12.4231 26.0525 15.4339 29.5594 18.9427C29.8535 19.2368 29.9995 19.6209 29.9995 20.005C29.9995 20.3891 29.8535 20.7712 29.5594 21.0653C26.0525 24.5741 23.0498 27.5829 23.0498 27.5829C22.7597 27.873 22.3796 28.017 21.9975 28.017C21.6134 28.015 21.2293 27.869 20.9352 27.5749C20.3511 26.9887 20.3471 26.0425 20.9292 25.4604L24.8842 21.5054H11.4949C10.6667 21.5054 9.9945 20.8332 9.9945 20.005C9.9945 19.1768 10.6667 18.5046 11.4949 18.5046H24.8842L20.9272 14.5456C20.3471 13.9675 20.3531 13.0213 20.9392 12.4371C21.2333 12.143 21.6174 11.995 21.9995 11.993C22.3796 11.993 22.7597 12.135 23.0478 12.4231Z" fill="#615CCD"/>
</svg>
