<?xml version="1.0" encoding="utf-8"?>
<!-- Generator: Adobe Illustrator 25.3.1, SVG Export Plug-In . SVG Version: 6.00 Build 0)  -->
<svg version="1.1" id="Layer_1" xmlns="http://www.w3.org/2000/svg" xmlns:xlink="http://www.w3.org/1999/xlink" x="0px" y="0px"
	 viewBox="0 0 962.07 277.61" style="enable-background:new 0 0 962.07 277.61;" xml:space="preserve">
<style type="text/css">
	.st0{fill:#FFFFFF;}
</style>
<g>
	<path class="st0" d="M88.83,191.04H51.67V51.67h28.67c20.74,0,29.42,1.51,37.72,6.79c10,6.41,15.84,17.35,15.84,30.36
		c0,13.01-4.34,20.37-15.46,26.21c17.73,7.35,23.76,17.92,23.76,34.51C142.2,175.01,124.66,191.04,88.83,191.04z M88.07,76.95H77.51
		v28.48h8.3c15.65,0,22.25-4.34,22.25-14.33C108.06,81.47,101.46,76.95,88.07,76.95z M89.77,130.69H77.51v35.64h12.82
		c18.1,0,25.84-5.28,25.84-17.35C116.17,136.54,107.69,130.69,89.77,130.69z"/>
	<g>
		<rect x="152.12" y="86.56" class="st0" width="25.08" height="104.48"/>
		<rect x="152.31" y="51.67" class="st0" width="25.08" height="25.08"/>
	</g>
	<path class="st0" d="M243.97,193.49c-30.93,0-55.82-24.33-55.82-54.69c0-30.74,24.14-54.69,55.07-54.69
		c23.76,0,44.51,13.39,52.62,37.34h-28.29c-5.09-9.62-13.01-14.33-24.33-14.33c-17.35,0-29.8,13.2-29.8,31.49
		c0,18.29,13.01,31.87,30.36,31.87c10.37,0,17.54-4.15,23.76-13.77h28.29C287.15,180.1,268.29,193.49,243.97,193.49z"/>
	<path class="st0" d="M358.41,193.49c-30.55,0-55.45-24.52-55.45-54.69c0-29.99,24.89-54.69,55.26-54.69
		c31.49,0,55.82,24.33,55.82,55.45C414.05,168.98,388.78,193.49,358.41,193.49z M358.41,107.12c-16.41,0-30.17,14.14-30.17,31.31
		c0,17.92,13.39,32.06,30.36,32.06c16.6,0,30.17-14.14,30.17-31.68C388.78,121.45,375.2,107.12,358.41,107.12z"/>
	<path class="st0" d="M491.68,191.04v-51.11c0-27.91-7.54-32.81-19.99-32.81c-7.92,0-14.52,3.39-18.48,9.62
		c-3.21,5.09-4.15,11.13-4.15,25.08v49.22h-25.08V86.56h23.2v9.99c9.24-8.86,17.54-12.45,29.42-12.45
		c14.52,0,25.84,5.28,32.63,15.09c5.66,8.11,7.54,17.16,7.54,35.83v56.01H491.68z"/>
	<path class="st0" d="M582.13,193.49c-30.55,0-55.45-24.52-55.45-54.69c0-29.99,24.89-54.69,55.26-54.69
		c31.49,0,55.82,24.33,55.82,55.45C637.76,168.98,612.49,193.49,582.13,193.49z M582.13,107.12c-16.41,0-30.17,14.14-30.17,31.31
		c0,17.92,13.39,32.06,30.36,32.06c16.6,0,30.17-14.14,30.17-31.68C612.49,121.45,598.91,107.12,582.13,107.12z"/>
	<path class="st0" d="M779.33,191.04v-57.33c0-20.93-7.92-26.59-19.61-26.59c-13.96,0-21.12,7.54-21.12,32.44v51.48h-25.08v-57.33
		c0-20.56-7.17-26.59-20.37-26.59c-14.52,0-20.37,7.73-20.37,32.44v51.48h-25.08V86.56h23.01v9.81c7.36-8.86,14.9-12.26,27.16-12.26
		c14.33,0,23.57,4.9,30.74,16.22c8.49-11.32,18.86-16.22,33.57-16.22c27.53,0,42.24,15.28,42.24,46.58v60.35H779.33z"/>
	<path class="st0" d="M850.05,225.93h-26.97l19.61-44.7l-38.28-94.67h28.67l23.2,67.7l25.27-67.7h28.85L850.05,225.93z"/>
</g>
</svg>
