<svg width="164" height="30" fill="none" xmlns="http://www.w3.org/2000/svg"><path d="M59.079 8v3c0 .56-.44 1-1 1h-10c-.56 0-1-.44-1-1V5c0-.56-.44-1-1-1h-2c-.56 0-1 .44-1 1v18c0 .56.44 1 1 1h2c.56 0 1-.44 1-1v-6c0-.56.44-1 1-1h10c.56 0 1 .44 1 1v6c0 .56.44 1 1 1h2c.56 0 1-.44 1-1V5c0-.56-.44-1-1-1h-2c-.56 0-1 .44-1 1v3ZM115.079 8h-3c-.56 0-1-.44-1-1V1c0-.56-.44-1-1-1h-2c-.56 0-1 .44-1 1v22c0 .56.44 1 1 1h2c.56 0 1-.44 1-1V13c0-.56.44-1 1-1h6c.56 0 1 .44 1 1v10c0 .56.44 1 1 1h2c.56 0 1-.44 1-1V9c0-.56-.44-1-1-1h-7ZM135.079 8h-7c-.56 0-1 .44-1 1v14c0 .56.44 1 1 1h14c.56 0 1-.44 1-1v-2c0-.56-.44-1-1-1h-10c-.56 0-1-.44-1-1s.44-1 1-1h10c.56 0 1-.44 1-1V9c0-.56-.44-1-1-1h-7Zm4 5c0 .56-.44 1-1 1h-6c-.56 0-1-.44-1-1s.44-1 1-1h6c.56 0 1 .44 1 1ZM159.079 8h-11c-.56 0-1 .44-1 1v14c0 .56.44 1 1 1h2c.56 0 1-.44 1-1V13c0-.56.44-1 1-1h6c.56 0 1 .44 1 1v10c0 .56.44 1 1 1h2c.56 0 1-.44 1-1V9c0-.56-.44-1-1-1h-3ZM79.079 12v7c0 .56-.44 1-1 1h-6c-.56 0-1-.44-1-1V9c0-.56-.44-1-1-1h-2c-.56 0-1 .44-1 1v14c0 .56.44 1 1 1h10c.56 0 1 .44 1 1s-.44 1-1 1h-6c-.56 0-1 .44-1 1v2c0 .56.44 1 1 1h10c.56 0 1-.44 1-1V9c0-.56-.44-1-1-1h-2c-.56 0-1 .44-1 1v3ZM95.08 8h-7c-.56 0-1 .44-1 1v20c0 .56.44 1 1 1h2c.56 0 1-.44 1-1v-4c0-.56.44-1 1-1h9.999c.56 0 1-.44 1-1V9c0-.56-.44-1-1-1h-7Zm4 8v3c0 .56-.44 1-1 1h-6c-.56 0-1-.44-1-1v-6c0-.56.44-1 1-1h6c.56 0 1 .44 1 1v3Z" fill="#fff"/><path d="M11.079 17v2c0 .56-.44 1-1 1h-2c-.56 0-1-.44-1-1V9c0-.56.44-1 1-1h.58c.9 0 1.34-1.08.7-1.7l-3.56-3.6a.99.99 0 0 0-1.42 0L.799 6.3c-.64.62-.18 1.7.7 1.7h.58c.56 0 1 .44 1 1v14c0 .56.44 1 1 1h10c.56 0 1-.44 1-1v-6c0-.56-.44-1-1-1h-2c-.54 0-1 .44-1 1Z" fill="#615CCD"/><path d="M24.079 20c-.56 0-1-.44-1-1V5c0-.56-.44-1-1-1h-10c-.56 0-1 .44-1 1v6c0 .56.44 1 1 1h2c.56 0 1-.44 1-1V9c0-.56.44-1 1-1h2c.56 0 1 .44 1 1v10c0 .56-.44 1-1 1h-.58c-.9 0-1.34 1.08-.7 1.7l3.58 3.58c.4.4 1.02.4 1.42 0l3.58-3.58c.62-.62.18-1.7-.7-1.7h-.6Z" fill="#615CCD"/></svg>