<svg width="26" height="24" viewBox="0 0 26 24" fill="none" xmlns="http://www.w3.org/2000/svg">
<path d="M10.9889 15.0099V17.0099C10.9889 17.5699 10.5489 18.0099 9.98895 18.0099H7.98895C7.42895 18.0099 6.98895 17.5699 6.98895 17.0099V7.00991C6.98895 6.44991 7.42895 6.00991 7.98895 6.00991H8.56895C9.46895 6.00991 9.90895 4.92991 9.26895 4.30991L5.70895 0.709912C5.30895 0.309912 4.68895 0.309912 4.28895 0.709912L0.708945 4.30991C0.0689454 4.92991 0.528945 6.00991 1.40895 6.00991H1.98895C2.54895 6.00991 2.98895 6.44991 2.98895 7.00991V21.0099C2.98895 21.5699 3.42895 22.0099 3.98895 22.0099H13.9889C14.5489 22.0099 14.9889 21.5699 14.9889 21.0099V15.0099C14.9889 14.4499 14.5489 14.0099 13.9889 14.0099H11.9889C11.4489 14.0099 10.9889 14.4499 10.9889 15.0099Z" fill="white"/>
<path d="M23.9888 18.0101C23.4288 18.0101 22.9888 17.5701 22.9888 17.0101V3.01008C22.9888 2.45008 22.5488 2.01008 21.9888 2.01008H11.9888C11.4288 2.01008 10.9888 2.45008 10.9888 3.01008V9.01008C10.9888 9.57008 11.4288 10.0101 11.9888 10.0101H13.9888C14.5488 10.0101 14.9888 9.57008 14.9888 9.01008V7.01008C14.9888 6.45008 15.4288 6.01008 15.9888 6.01008H17.9888C18.5488 6.01008 18.9888 6.45008 18.9888 7.01008V17.0101C18.9888 17.5701 18.5488 18.0101 17.9888 18.0101H17.4088C16.5088 18.0101 16.0688 19.0901 16.7088 19.7101L20.2888 23.2901C20.6888 23.6901 21.3088 23.6901 21.7088 23.2901L25.2888 19.7101C25.9088 19.0901 25.4688 18.0101 24.5888 18.0101H23.9888Z" fill="white"/>
</svg>
