<svg width="25" height="25" fill="none" xmlns="http://www.w3.org/2000/svg"><g clip-path="url(#a)"><path d="M12.764 24.5c6.628 0 12-5.373 12-12s-5.372-12-12-12c-6.627 0-12 5.373-12 12s5.373 12 12 12Z" fill="#E84142"/><path d="M16.997 12.812c.416-.718 1.087-.718 1.503 0l2.589 4.545c.416.718.075 1.304-.756 1.304h-5.216c-.822 0-1.162-.586-.756-1.304l2.636-4.545Zm-5.008-8.75c.416-.718 1.078-.718 1.493 0l.577 1.04 1.36 2.39c.331.68.331 1.484 0 2.164l-4.563 7.909a2.4 2.4 0 0 1-1.871 1.096h-3.79c-.83 0-1.17-.577-.755-1.304l7.55-13.295Z" fill="#fff"/></g><defs><clipPath id="a"><path fill="#fff" transform="translate(.764 .5)" d="M0 0h24v24H0z"/></clipPath></defs></svg>