<svg width="25" height="25" fill="none" xmlns="http://www.w3.org/2000/svg"><path d="M24.264 12.5c0 6.351-5.148 11.5-11.5 11.5-6.35 0-11.5-5.149-11.5-11.5S6.414 1 12.764 1c6.352 0 11.5 5.149 11.5 11.5Z" fill="#000" stroke="#fff"/><path d="M14.665 6.902a2.982 2.982 0 0 0-1.5-.402h-3a1.5 1.5 0 0 1 1.5 1.5v4.5h1.5c.546 0 1.058-.147 1.499-.402.329-.191.618-.442.853-.738a2.996 2.996 0 0 0-.852-4.457Z" fill="#D85111"/><path d="M15.518 11.36a3.016 3.016 0 0 1-.854.738 2.982 2.982 0 0 1-1.499.402h-1.5V8a1.5 1.5 0 0 0-2.999 0v10.5h5.25a3.75 3.75 0 0 0 1.601-7.14Z" fill="#fff"/></svg>