<svg width="25" height="25" fill="none" xmlns="http://www.w3.org/2000/svg"><path d="M12.764.5c6.628 0 12 5.373 12 12 0 6.628-5.372 12-12 12-6.627 0-12-5.372-12-12 0-6.627 5.373-12 12-12Z" fill="#F5AC37"/><path d="M13.209 13.347h4.56c.097 0 .143 0 .15-.127a8.73 8.73 0 0 0 0-1.395c0-.09-.045-.127-.143-.127H8.7c-.112 0-.142.037-.142.142v1.335c0 .172 0 .172.18.172h4.47Zm4.2-3.21a.147.147 0 0 0 0-.104 2.975 2.975 0 0 0-.27-.473 3.827 3.827 0 0 0-.556-.697 1.84 1.84 0 0 0-.345-.338 5.391 5.391 0 0 0-2.25-1.14 5.594 5.594 0 0 0-1.275-.135H8.685c-.112 0-.127.045-.127.143v2.662c0 .112 0 .143.143.143h8.654s.075-.016.09-.06h-.036Zm0 4.77a1.755 1.755 0 0 0-.383 0H8.709c-.113 0-.15 0-.15.15v2.603c0 .12 0 .15.15.15h3.84c.183.015.367.002.547-.037a5.72 5.72 0 0 0 1.628-.36c.19-.066.373-.152.547-.255h.052a4.872 4.872 0 0 0 2.093-2.106s.052-.114-.007-.143v-.002ZM7.051 19.16v-4.147c0-.098 0-.113-.12-.113H5.305c-.09 0-.127 0-.127-.12v-1.425h1.74c.097 0 .134 0 .134-.127v-1.41c0-.09 0-.112-.12-.112H5.305c-.09 0-.127 0-.127-.12v-1.32c0-.082 0-.105.12-.105h1.612c.112 0 .142 0 .142-.142V5.976c0-.12 0-.15.15-.15h5.625c.409.016.814.061 1.215.135a7.33 7.33 0 0 1 2.348.87c.481.284.925.626 1.32 1.02.296.309.564.642.802.998.236.36.432.745.586 1.147.019.105.12.176.224.158h1.342c.173 0 .173 0 .18.165v1.23c0 .12-.045.15-.165.15h-1.035c-.105 0-.135 0-.128.135.041.457.041.916 0 1.372 0 .128 0 .143.143.143h1.185c.052.067 0 .135 0 .203.007.087.007.175 0 .262v.908c0 .127-.038.165-.15.165h-1.418a.188.188 0 0 0-.218.143 6 6 0 0 1-1.575 2.295c-.255.229-.523.445-.802.644-.3.173-.593.353-.9.495a8.11 8.11 0 0 1-1.77.563 9.227 9.227 0 0 1-1.756.142H7.05v-.007l.002-.002Z" fill="#FEFEFD"/></svg>