<svg width="25" height="25" fill="none" xmlns="http://www.w3.org/2000/svg"><circle cx="12.764" cy="12.5" r="12" fill="#50AF95"/><path fill-rule="evenodd" clip-rule="evenodd" d="M14.189 12.984c-.08.006-.49.03-1.408.03-.729 0-1.247-.021-1.428-.03-2.818-.124-4.922-.614-4.922-1.202 0-.587 2.104-1.077 4.922-1.203v1.917c.184.013.712.044 1.44.044.876 0 1.314-.036 1.393-.044v-1.915c2.812.125 4.91.615 4.91 1.201 0 .586-2.097 1.077-4.91 1.202h.003Zm0-2.602V8.667h3.924V6.052H7.428v2.615h3.924v1.715c-3.19.146-5.588.778-5.588 1.535 0 .757 2.399 1.388 5.588 1.535v5.496h2.836V13.45c3.182-.146 5.576-.777 5.576-1.534 0-.756-2.392-1.387-5.576-1.534Z" fill="#fff"/></svg>