<svg width="9" height="8" fill="none" xmlns="http://www.w3.org/2000/svg"><path fill-rule="evenodd" clip-rule="evenodd" d="M4.847 8a4 4 0 1 0 0-8 4 4 0 0 0 0 8ZM3.638 5.812H2.7c-.223 0-.334 0-.4-.043a.268.268 0 0 1-.123-.21c-.004-.08.05-.176.16-.369h.001l2.054-3.6c.112-.195.168-.293.24-.33a.269.269 0 0 1 .244 0c.071.037.127.135.24.33l.473.828c.082.142.123.213.14.288.02.082.02.167 0 .249-.017.075-.058.146-.14.289L4.362 5.393c-.082.144-.124.216-.18.27a.538.538 0 0 1-.218.127c-.075.022-.158.022-.325.022Zm3.348 0H5.898c-.225 0-.337 0-.404-.043a.268.268 0 0 1-.121-.212c-.004-.08.052-.176.165-.37l.543-.932c.112-.191.168-.287.238-.323a.269.269 0 0 1 .243 0c.07.036.127.131.239.322l.544.932c.114.194.17.291.167.37a.268.268 0 0 1-.122.213c-.067.043-.18.043-.404.043Z" fill="#fff"/></svg>