<svg width="9" height="8" fill="none" xmlns="http://www.w3.org/2000/svg"><path d="M6.861 2.629a.47.47 0 0 0-.501 0l-1.157.676-.77.444-1.157.676a.47.47 0 0 1-.502 0l-.906-.521c-.135-.097-.25-.252-.25-.425V2.436c0-.193.096-.348.25-.444l.906-.503a.47.47 0 0 1 .502 0l.906.522a.48.48 0 0 1 .23.425v.676l.772-.464v-.676a.48.48 0 0 0-.25-.425L3.275.582a.47.47 0 0 0-.502 0l-1.696.965a.504.504 0 0 0-.231.425v1.97a.48.48 0 0 0 .25.425l1.697.966a.47.47 0 0 0 .5 0l1.158-.657.77-.463 1.157-.657a.47.47 0 0 1 .501 0l.906.521c.155.097.251.251.251.425v1.043a.48.48 0 0 1-.25.425l-.926.521a.47.47 0 0 1-.501 0l-.887-.502a.503.503 0 0 1-.25-.425v-.676l-.771.464v.676a.48.48 0 0 0 .25.425l1.696.965a.47.47 0 0 0 .502 0l1.696-.965a.504.504 0 0 0 .25-.425v-1.97a.48.48 0 0 0-.25-.425L6.861 2.63Z" fill="#fff"/></svg>