<svg width="35" height="35" fill="none" xmlns="http://www.w3.org/2000/svg"><path d="M17.5 27.5c5.523 0 10-4.477 10-10s-4.477-10-10-10-10 4.477-10 10 4.477 10 10 10Z" fill="#fff"/><path d="M21.027 17.76c.347-.599.906-.599 1.252 0l2.158 3.787c.346.599.063 1.087-.63 1.087h-4.346c-.685 0-.969-.488-.63-1.087l2.197-3.787Zm-4.173-7.292c.347-.598.898-.598 1.244 0l.48.867 1.134 1.992a2.07 2.07 0 0 1 0 1.803l-3.803 6.59a2 2 0 0 1-1.559.914h-3.157c-.693 0-.977-.48-.63-1.087l6.291-11.079Z" fill="#E84142"/></svg>