<svg width="35" height="35" fill="none" xmlns="http://www.w3.org/2000/svg"><path d="M22.761 14.002c-.374-.214-.854-.214-1.282 0l-2.99 1.762-2.03 1.122-2.938 1.762c-.374.214-.855.214-1.282 0L9.942 17.26a1.302 1.302 0 0 1-.64-1.122v-2.67c0-.428.213-.855.64-1.122l2.297-1.336c.374-.213.854-.213 1.282 0l2.296 1.39c.374.213.641.64.641 1.12v1.763l2.03-1.175v-1.816c0-.427-.214-.854-.64-1.121l-4.274-2.51c-.374-.214-.854-.214-1.282 0l-4.38 2.563c-.427.214-.64.641-.64 1.068v5.021c0 .427.213.855.64 1.122l4.327 2.51c.374.214.854.214 1.282 0l2.937-1.71 2.03-1.174 2.938-1.71c.374-.213.854-.213 1.282 0l2.296 1.336c.374.214.641.64.641 1.122v2.67c0 .428-.213.855-.64 1.122l-2.244 1.335c-.374.214-.854.214-1.282 0l-2.296-1.335a1.302 1.302 0 0 1-.642-1.122V19.77l-2.03 1.175v1.763c0 .427.215.854.642 1.121l4.326 2.51c.374.214.855.214 1.282 0l4.326-2.51c.374-.213.642-.64.642-1.121v-5.074c0-.428-.214-.855-.642-1.122l-4.326-2.51Z" fill="#fff"/></svg>